<svg version="1.1" id="Layer_1" xmlns="http://www.w3.org/2000/svg" xmlns:xlink="http://www.w3.org/1999/xlink" x="0px" y="0px"
	 width="90" height="90" viewBox="0 0 90 90" style="enable-background:new 0 0 90 90;" xml:space="preserve">
<style type="text/css">
	.st0{fill:#996F15;}
</style>
<title>Artboard 1</title>
<path class="st0" d="M23.2,78.9l-1.6,2.6c12.1,8.1,27.8,8.9,40.6,2l-1.5-2.7C48.8,87.2,34.4,86.5,23.2,78.9L23.2,78.9z"/>
<path class="st0" d="M79,43.1c0.6,3.4,0.7,6.8,0.3,10.2l3,0.3c1.8-16.2-6.6-31.8-21.1-39.3L59.9,17C70.1,22.1,77.2,31.8,79,43.1z"/>
<g>
	<rect x="45.8" y="3.2" class="st0" width="1.8" height="4.2"/>
	<path class="st0" d="M48.1,7.9h-2.8V2.6h2.8V7.9z M46.2,6.9h0.8V3.6h-0.8V6.9z"/>
</g>
<g>
	<polygon class="st0" points="50.7,7.8 54,4.3 55.4,5.7 52.1,9 	"/>
	<path class="st0" d="M52.1,9.7L50,7.8l4-4.2l2.1,2.1L52.1,9.7z M51.4,7.8L52,8.3l2.6-2.6L54,5.1L51.4,7.8z"/>
</g>
<g>
	<polygon class="st0" points="38.1,5.7 39.4,4.3 42.7,7.8 41.4,9 	"/>
	<path class="st0" d="M41.4,9.7l-4-4l2.1-2.1l4,4.2L41.4,9.7z M38.8,5.7l2.6,2.6L42,7.8l-2.6-2.7L38.8,5.7z"/>
</g>
<path class="st0" d="M19.1,22.9c2.5-2.4,5.3-4.4,8.4-5.9L26,14.3C11.5,21.7,3,37.2,4.7,53.5l3-0.3C6.5,41.8,10.7,30.6,19.1,22.9z"/>
<g>
	<path class="st0" d="M49.1,11.4c-0.3-0.1-0.6-0.1-0.9,0l-12.9,5c-0.3,0.2-0.5,0.5-0.5,0.9c0,0.4,0.3,0.7,0.6,0.9l12.3,3.9v9.8h1.8
		V12.3C49.5,12,49.3,11.6,49.1,11.4z M47.5,19.9L38,17.2l9.5-3.3V19.9z"/>
	<path class="st0" d="M50,32.4h-2.8v-9.9l-12-3.8c-0.6-0.3-0.9-0.8-0.9-1.3c-0.1-0.5,0.2-1.1,0.7-1.4l13-5c0.4-0.2,0.9-0.2,1.3,0
		l0.1,0.1c0.4,0.3,0.6,0.8,0.6,1.2L50,32.4z M48.2,31.4H49V12.3c0-0.2-0.1-0.3-0.2-0.5c-0.1,0-0.3,0-0.4,0l-13,5
		c-0.1,0-0.2,0.2-0.1,0.4c0,0.2,0.1,0.4,0.3,0.5l12.6,4V31.4z M48,20.5l-11.6-3.3L48,13.1V20.5z M39.7,17.1l7.3,2.1v-4.7L39.7,17.1z
		"/>
</g>
<path class="st0" d="M4.3,77.6L5.8,70c-0.7-1.5-1.1-3.1-1.1-4.7c0-5.5,4.1-10,9.4-10.6l0-0.1l1.2,0c0.2,0,0.5,0,0.7,0
	c5.9,0.2,10.5,5.1,10.3,11c-0.2,5.9-5.2,10.5-11,10.3c0,0,0,0,0,0c-1.3,0-2.7-0.3-3.9-0.8L4.3,77.6z M15.3,57.7
	c-4.2,0-7.7,3.4-7.7,7.7c0,1.3,0.3,2.6,1,3.8l0.3,0.5l-0.7,3.5l3.3-1.1l0.6,0.3c1,0.5,2.1,0.7,3.3,0.7c0,0,0,0,0,0
	c4.3,0.1,7.8-3.2,8-7.4c0.1-4.1-3-7.6-7.1-7.9L15.3,57.7C15.3,57.7,15.3,57.7,15.3,57.7z"/>
<rect x="10.7" y="61.8" class="st0" width="9.4" height="3"/>
<rect x="10.7" y="65.8" class="st0" width="6.5" height="3"/>
<g>
	<path class="st0" d="M61.6,74.7h13.6c1.3,0,2.3-1,2.3-2.3v0V72l4.1,3c0.1,0.1,0.3,0.2,0.5,0.2c0.1,0,0.3-0.1,0.4-0.1
		c0.3-0.1,0.5-0.5,0.5-0.8V63.1c0-0.3-0.2-0.6-0.5-0.8c-0.3-0.1-0.6-0.1-0.9,0.1l-4.1,2.9v-0.4c0-1.3-1-2.3-2.3-2.3c0,0,0,0,0,0
		H61.6c-1.3,0-2.3,1-2.3,2.3c0,0,0,0,0,0v7.5C59.3,73.6,60.3,74.7,61.6,74.7C61.6,74.7,61.6,74.7,61.6,74.7z M81.4,64.7v7.9
		l-3.8-2.7v-2.5L81.4,64.7z M75.8,72.4c0,0.3-0.2,0.5-0.5,0.5l0,0H61.6c-0.3,0-0.5-0.2-0.5-0.5c0,0,0,0,0,0v-7.4
		c0-0.3,0.2-0.6,0.5-0.6c0,0,0,0,0,0h13.6c0.3,0,0.5,0.3,0.5,0.6V72.4z"/>
	<path class="st0" d="M82.2,75.6c-0.3,0-0.5-0.1-0.7-0.3l-3.5-2.5c-0.2,1.3-1.3,2.3-2.7,2.3H61.6c-0.7,0-1.4-0.3-1.9-0.8
		c-0.5-0.5-0.8-1.2-0.7-1.9v-7.5c0-0.7,0.3-1.4,0.8-1.9c0.5-0.5,1.2-0.8,1.9-0.8c0,0,0,0,0,0h13.6c0.7,0,1.4,0.3,1.9,0.8
		c0.4,0.4,0.7,1,0.8,1.6l3.6-2.5c0.4-0.2,0.9-0.3,1.3-0.1c0.4,0.2,0.7,0.7,0.7,1.1v11.2c0,0.5-0.2,0.9-0.7,1.1
		C82.6,75.5,82.4,75.5,82.2,75.6C82.2,75.6,82.2,75.6,82.2,75.6z M77.2,71.3l4.7,3.4c0.1,0.1,0.2,0.1,0.3,0.1c0.1,0,0.2,0,0.3-0.1
		c0.2-0.1,0.3-0.3,0.3-0.4l0-11.2c0-0.2-0.1-0.4-0.3-0.5c-0.1-0.1-0.4,0-0.5,0.1L77.2,66v-1.1c0-0.5-0.2-1-0.6-1.4s-0.8-0.6-1.4-0.6
		H61.6c-0.5,0-1,0.2-1.4,0.6c-0.4,0.4-0.6,0.8-0.6,1.4v7.5c0,1.1,0.8,2,1.9,2l0,0.4v-0.4h13.6c1.1,0,1.9-0.9,1.9-1.9V71.3z
		 M81.7,73.3l-4.6-3.2v-2.9l4.6-3.2V73.3z M77.9,69.7l3.1,2.2v-6.4l-3.1,2.2V69.7z M61.6,73.3c-0.2,0-0.5-0.1-0.6-0.3
		c-0.2-0.2-0.3-0.4-0.3-0.6v-7.5c0-0.5,0.4-0.9,0.9-0.9h13.6c0.5,0,0.9,0.4,0.9,0.9v7.4c0,0.5-0.4,0.9-0.9,0.9H61.6
		C61.6,73.3,61.6,73.3,61.6,73.3z M75.2,64.8H61.6c-0.1,0-0.2,0.1-0.2,0.2v7.4c0,0.1,0.1,0.2,0.2,0.2c0,0,0,0,0,0h13.6
		c0.1,0,0.2-0.1,0.2-0.2v-7.4C75.4,64.8,75.3,64.8,75.2,64.8z"/>
</g>
<g>
	<path class="st0" d="M71.7,61.8c2.1,0,3.7-1.7,3.7-3.7c0,0,0,0,0,0c0-2-1.7-3.7-3.8-3.7c-2,0-3.7,1.7-3.7,3.8
		C68,60.1,69.6,61.8,71.7,61.8L71.7,61.8z M71.7,55.9c1.1,0,2,1,1.9,2.1c0,0,0,0,0,0.1c0,1.1-0.9,1.9-1.9,1.9
		c-1.1,0-1.9-0.9-1.9-1.9c0,0,0,0,0,0C69.6,56.9,70.5,56,71.7,55.9C71.6,55.9,71.6,55.9,71.7,55.9z"/>
	<path class="st0" d="M71.3,62.2L71.3,62.2c-2-0.2-3.7-2-3.7-4.1c0-1.1,0.4-2.1,1.2-2.9c0.8-0.8,1.8-1.2,2.9-1.2c0,0,0,0,0.1,0
		c2.2,0,4.1,1.8,4.1,4c0,2.3-1.8,4.1-4.1,4.2L71.3,62.2z M71.7,54.7C71.6,54.7,71.6,54.7,71.7,54.7c-0.9,0-1.8,0.4-2.4,1
		c-0.6,0.6-1,1.5-0.9,2.4c0,1.8,1.5,3.3,3.3,3.3H72c1.7-0.2,3-1.6,3-3.4C75,56.2,73.5,54.7,71.7,54.7z M71.7,60.3
		c-1.3,0-2.3-1-2.3-2.3c0-0.6,0.2-1.2,0.6-1.7c0.4-0.5,1-0.8,1.6-0.8l0.1,0c1.3,0,2.3,1.1,2.3,2.4C74,59.3,72.9,60.3,71.7,60.3
		C71.7,60.3,71.7,60.3,71.7,60.3z M71.6,56.3L71.6,56.3c-0.5,0-0.9,0.2-1.1,0.5c-0.3,0.3-0.4,0.7-0.4,1.2c0,0.4,0.2,0.8,0.5,1.1
		c0.3,0.3,0.7,0.5,1.1,0.5c0,0,0,0,0,0c0.4,0,0.8-0.2,1.1-0.5s0.5-0.7,0.5-1.1C73.2,57,72.5,56.3,71.6,56.3z M71.7,55.9l0,0.4
		L71.7,55.9z"/>
</g>
<g>
	<path class="st0" d="M64.2,61.1c1.7,0,3.1-1.4,3.1-3.1c0-1.7-1.4-3.1-3.1-3.2c-1.7,0-3.2,1.4-3.2,3.2
		C61.1,59.7,62.5,61.2,64.2,61.1L64.2,61.1z M64.2,56.6c0.8,0.1,1.3,0.7,1.3,1.5c-0.1,0.7-0.6,1.2-1.3,1.3c-0.7,0-1.3-0.6-1.3-1.4
		C62.9,57.2,63.5,56.6,64.2,56.6z"/>
	<path class="st0" d="M64.6,61.5h-0.4c-1.9,0-3.5-1.6-3.5-3.5c0-1.9,1.6-3.5,3.5-3.5c1.9,0,3.5,1.6,3.5,3.5
		C67.7,59.8,66.4,61.3,64.6,61.5L64.6,61.5z M64.2,55.2c-0.7,0-1.4,0.3-2,0.8c-0.5,0.5-0.8,1.2-0.8,2c0,1.4,1.1,2.6,2.5,2.8l0.3,0
		c1.5,0,2.7-1.2,2.7-2.7C67,56.5,65.8,55.2,64.2,55.2z M64.3,59.7c-1,0-1.7-0.8-1.7-1.7c0-1,0.7-1.8,1.7-1.8l0,0l0,0
		c0.5,0,0.9,0.3,1.2,0.6s0.5,0.8,0.4,1.3C65.8,59,65.1,59.7,64.3,59.7z M64.2,56.9c-0.5,0-1,0.5-1,1.1c0,0.5,0.4,1,1,1
		c0.5,0,0.9-0.4,0.9-0.9C65.2,57.5,64.8,57,64.2,56.9z"/>
</g>
</svg>
