<svg id="Layer_1" data-name="Layer 1" xmlns="http://www.w3.org/2000/svg" width="90" height="90" viewBox="0 0 90 90"><defs><style>.cls-1{fill:#8B4298;}</style></defs><title>Artboard 1</title><rect class="cls-1" x="61.73" y="4.36" width="2.66" height="5.09"/><rect class="cls-1" x="68.96" y="7.57" width="5.27" height="2.66" transform="translate(14.68 53.23) rotate(-45)"/><rect class="cls-1" x="53.2" y="6.26" width="2.66" height="5.27" transform="translate(9.68 41.16) rotate(-45)"/><path class="cls-1" d="M72.38,40.06H67.06V12.11a1.61,1.61,0,0,0-.67-1.2,1.23,1.23,0,0,0-1.33,0L46.43,18a1.4,1.4,0,0,0-.67,1.2,1.28,1.28,0,0,0,.8,1.2L64.39,27V40h-8a1.25,1.25,0,0,0-1.33,1.16v9.49H41.77a1.25,1.25,0,0,0-1.33,1.16v9.49H27.13a1.25,1.25,0,0,0-1.33,1.16V72H11.15a1.27,1.27,0,0,0-1.33,1.21V84A1.26,1.26,0,0,0,11,85.33H72.38a1.25,1.25,0,0,0,1.33-1.16V41.39a1.25,1.25,0,0,0-1.16-1.33Zm-8-25.82v9.89l-14.1-5ZM71,82.65H12.49v-8H27.13a1.26,1.26,0,0,0,1.33-1.19V64H41.77a1.25,1.25,0,0,0,1.33-1.16V53.37H56.41a1.24,1.24,0,0,0,1.33-1.16.74.74,0,0,0,0-.21V42.72H71.05Z"/></svg>