<svg xmlns="http://www.w3.org/2000/svg" width="58.25" height="57.531" viewBox="0 0 58.25 57.531">
  <g id="Group_95" data-name="Group 95" transform="translate(-15016.5 421)">
    <g id="Group_94" data-name="Group 94">
      <g id="Group_90" data-name="Group 90" transform="translate(5 -8)">
        <g id="Component_11_3" data-name="Component 11 – 3" transform="translate(15012.5 -390.5)">
          <g id="Group_49" data-name="Group 49" transform="translate(-0.5 -1.5)">
            <g id="Polygon_1" data-name="Polygon 1" transform="translate(15 9) rotate(90)" fill="none">
              <path d="M2.5,0,5,4H0Z" stroke="none"/>
              <path d="M 2.5 0 L 5 4 L 0 4 L 2.5 0 Z" stroke="none" fill="#fff"/>
            </g>
          </g>
          <line id="Line_109" data-name="Line 109" y2="18" fill="none" stroke="#fff" stroke-linecap="round" stroke-width="2"/>
          <line id="Line_110" data-name="Line 110" y2="18" transform="translate(24)" fill="none" stroke="#fff" stroke-linecap="round" stroke-width="2"/>
          <line id="Line_111" data-name="Line 111" x2="24" fill="none" stroke="#fff" stroke-linecap="round" stroke-width="2"/>
          <path id="Path_2358" data-name="Path 2358" d="M0,0H24" transform="translate(0 18)" fill="none" stroke="#fff" stroke-linecap="round" stroke-width="2"/>
          <line id="Line_112" data-name="Line 112" x2="24" transform="translate(0 4)" fill="none" stroke="#fff" stroke-width="1"/>
        </g>
        <line id="Line_107" data-name="Line 107" y1="6" x2="12" transform="translate(15037.5 -400.5)" fill="none" stroke="#fff" stroke-linecap="round" stroke-width="2"/>
        <line id="Line_108" data-name="Line 108" x2="12" y2="6" transform="translate(15037.5 -369.5)" fill="none" stroke="#fff" stroke-linecap="round" stroke-width="2"/>
        <g id="Group_91" data-name="Group 91" transform="translate(-27 9)">
          <g id="Path_2357" data-name="Path 2357" transform="translate(15080 -414.699)" fill="none">
            <path d="M8.122,2.174c4.625,0,8.628,1.02,8.628,4.591V13.23H0V6.765C0,3.195,3.5,2.174,8.122,2.174Z" stroke="none"/>
            <path d="M 8.122010231018066 4.174045562744141 C 5.894280433654785 4.174045562744141 4.237030029296875 4.428915977478027 3.196319580078125 4.931565284729004 C 2.335419654846191 5.347365379333496 2 5.861475944519043 2 6.765205383300781 L 2 11.23046588897705 L 14.75 11.23046588897705 L 14.75 6.765205383300781 C 14.75 6.204006195068359 14.57950019836426 5.911345481872559 14.45125007629395 5.740036010742188 C 14.23081016540527 5.445566177368164 13.86314964294434 5.182576179504395 13.35848045349121 4.958355903625488 C 12.55315971374512 4.600555419921875 10.99096012115479 4.174045562744141 8.122010231018066 4.174045562744141 M 8.122010231018066 2.174045562744141 C 12.747389793396 2.174045562744141 16.75 3.194535255432129 16.75 6.765205383300781 L 16.75 13.23046588897705 L 0 13.23046588897705 L 0 6.765205383300781 C 0 3.194535255432129 3.496620178222656 2.174045562744141 8.122010231018066 2.174045562744141 Z" stroke="none" fill="#fff"/>
          </g>
          <g id="Ellipse_11" data-name="Ellipse 11" transform="translate(15084 -422)" fill="none" stroke="#fff" stroke-width="2">
            <circle cx="4.5" cy="4.5" r="4.5" stroke="none"/>
            <circle cx="4.5" cy="4.5" r="3.5" fill="none"/>
          </g>
        </g>
        <g id="Group_93" data-name="Group 93" transform="translate(-27 46)">
          <g id="Path_2357-2" data-name="Path 2357" transform="translate(15080 -414.699)" fill="none">
            <path d="M8.122,2.174c4.625,0,8.628,1.02,8.628,4.591V13.23H0V6.765C0,3.195,3.5,2.174,8.122,2.174Z" stroke="none"/>
            <path d="M 8.122010231018066 4.174045562744141 C 5.894280433654785 4.174045562744141 4.237030029296875 4.428915977478027 3.196319580078125 4.931565284729004 C 2.335419654846191 5.347365379333496 2 5.861475944519043 2 6.765205383300781 L 2 11.23046588897705 L 14.75 11.23046588897705 L 14.75 6.765205383300781 C 14.75 6.204006195068359 14.57950019836426 5.911345481872559 14.45125007629395 5.740036010742188 C 14.23081016540527 5.445566177368164 13.86314964294434 5.182576179504395 13.35848045349121 4.958355903625488 C 12.55315971374512 4.600555419921875 10.99096012115479 4.174045562744141 8.122010231018066 4.174045562744141 M 8.122010231018066 2.174045562744141 C 12.747389793396 2.174045562744141 16.75 3.194535255432129 16.75 6.765205383300781 L 16.75 13.23046588897705 L 0 13.23046588897705 L 0 6.765205383300781 C 0 3.194535255432129 3.496620178222656 2.174045562744141 8.122010231018066 2.174045562744141 Z" stroke="none" fill="#fff"/>
          </g>
          <g id="Ellipse_11-2" data-name="Ellipse 11" transform="translate(15084 -422)" fill="none" stroke="#fff" stroke-width="2">
            <circle cx="4.5" cy="4.5" r="4.5" stroke="none"/>
            <circle cx="4.5" cy="4.5" r="3.5" fill="none"/>
          </g>
        </g>
      </g>
    </g>
  </g>
</svg>
