<svg id="Layer_1" data-name="Layer 1" xmlns="http://www.w3.org/2000/svg" width="90" height="90" viewBox="0 0 90 90"><defs><style>.cls-1{fill:#1149a0;fill-rule:evenodd;}</style></defs><title>Artboard 1</title><path class="cls-1" d="M19.15,37.38l-1.8,1.8a5.87,5.87,0,0,0-2.6-.6,6,6,0,0,0,0,12,5.9,5.9,0,0,0,5.7-4.3l2.6-2.6v.9a8.4,8.4,0,1,1-8.4-8.4A7.94,7.94,0,0,1,19.15,37.38Zm0-29.9-1.8,1.8a5.87,5.87,0,0,0-2.6-.6,6,6,0,0,0,0,12,5.9,5.9,0,0,0,5.7-4.3l2.6-2.6v.9a8.4,8.4,0,1,1-8.4-8.4A7.94,7.94,0,0,1,19.15,7.48ZM16,25.28v8.5c-.4,0-.8-.1-1.2-.1s-.8.1-1.2.1v-8.5c.4,0,.8.1,1.2.1A4.83,4.83,0,0,0,16,25.28Zm0,29.9v8.5c-.4,0-.8-.1-1.2-.1a4.83,4.83,0,0,0-1.2.1v-8.5c.4,0,.8.1,1.2.1A4.83,4.83,0,0,0,16,55.18Zm-1.2,27.6a8.4,8.4,0,1,1,8.4-8.4,8.4,8.4,0,0,1-8.4,8.4h0Zm0-2.4a6,6,0,1,0-6-6,6.07,6.07,0,0,0,5.95,6Zm-.5-62.9-3.4-3.4a1.2,1.2,0,0,1,1.7-1.7l2.5,2.5,7.6-7.6A1.2,1.2,0,0,1,24.4,9L16,17.48a1.15,1.15,0,0,1-1.62.13.8.8,0,0,1-.13-.13Zm0,29.9L10.85,44a1.2,1.2,0,1,1,1.7-1.7l2.5,2.5,7.6-7.6a1.2,1.2,0,1,1,1.7,1.7L16,47.38a1.15,1.15,0,0,1-1.62.13l-.13-.13ZM34,11H81.8a1.2,1.2,0,1,1,0,2.4H34a1.16,1.16,0,0,1-1.2-1.12V12.2A1.22,1.22,0,0,1,34,11Zm0,29.9H81.8a1.2,1.2,0,0,1,0,2.4H34a1.16,1.16,0,0,1-1.2-1.12V42.1A1.21,1.21,0,0,1,34,40.88Zm0,29.9H81.8a1.2,1.2,0,1,1,0,2.4H34a1.16,1.16,0,0,1-1.2-1.12V72A1.21,1.21,0,0,1,34,70.78Zm0-55H62.7a1.2,1.2,0,0,1,0,2.4H34a1.2,1.2,0,0,1,0-2.4Zm0,29.9H62.7a1.2,1.2,0,0,1,0,2.4H34A1.16,1.16,0,0,1,32.8,47V46.9A1.21,1.21,0,0,1,34,45.68Zm0,29.9H62.7a1.2,1.2,0,0,1,0,2.4H34a1.2,1.2,0,0,1,0-2.4Z"/></svg>