<?xml version="1.0" encoding="utf-8"?>
<!-- Generator: Adobe Illustrator 23.0.3, SVG Export Plug-In . SVG Version: 6.00 Build 0)  -->
<svg version="1.1" id="Layer_1" xmlns="http://www.w3.org/2000/svg" xmlns:xlink="http://www.w3.org/1999/xlink" x="0px" y="0px"
	 width="90" height="90" viewBox="0 0 90 90" style="enable-background:new 0 0 90 90;" xml:space="preserve">
<g fill="#0645AD">
	<path d="M27.3,42.3H68c3,0,3,4.6,0,4.6H27.3l15.9,12.9c2.3,2.1-0.5,5.5-2.8,3.7L19.5,46.2c-1.2-0.9-1.2-2.8,0-3.5l20.9-17.3
		c2.3-1.8,5.1,1.8,2.8,3.7L27.3,42.3z"/>
	<path d="M44.6,2c23.2,0,42.3,19.1,42.3,42.6c0,23.2-19.1,42.3-42.3,42.3C21.1,86.9,2,67.8,2,44.6C2,21.1,21.1,2,44.6,2z M44.6,6.6
		c-20.9,0-38,17-38,38c0,20.7,17,37.7,38,37.7c20.7,0,37.7-17,37.7-37.7C82.3,23.6,65.3,6.6,44.6,6.6z"/>
</g>
</svg>
