<?xml version="1.0" encoding="utf-8"?>
<!-- Generator: Adobe Illustrator 23.0.3, SVG Export Plug-In . SVG Version: 6.00 Build 0)  -->
<svg version="1.1" id="Layer_1" xmlns="http://www.w3.org/2000/svg" xmlns:xlink="http://www.w3.org/1999/xlink" x="0px" y="0px"
	 width="90" height="90" viewBox="0 0 100 100" style="enable-background:new 0 0 100 100;" xml:space="preserve">
<title>y</title>
<path d="M50,5C25.1,5,5,25.1,5,50s20.1,45,45,45s45-20.1,45-45C95,25.2,74.8,5,50,5z M50,88.7c-21.4,0-38.7-17.3-38.7-38.7
	S28.6,11.3,50,11.3S88.7,28.6,88.7,50l0,0C88.7,71.4,71.4,88.7,50,88.7z"/>
<g>
	<path d="M42.7,31.4c2.1-1.4,4.7-2,7.8-2c4.1,0,7.4,1,10.1,2.9s4,4.8,4,8.6c0,2.3-0.6,4.3-1.7,5.9c-0.7,1-2,2.2-3.9,3.7L57,51.9
		c-1,0.8-1.7,1.8-2.1,2.8c-0.2,0.7-0.3,1.7-0.3,3.2h-7.3c0.1-3,0.4-5.1,0.9-6.3c0.5-1.2,1.7-2.5,3.6-4l2-1.5c0.6-0.5,1.2-1,1.6-1.6
		c0.7-1,1.1-2.1,1.1-3.3c0-1.4-0.4-2.6-1.2-3.7c-0.8-1.1-2.3-1.7-4.4-1.7c-2.1,0-3.6,0.7-4.4,2.1c-0.9,1.4-1.3,2.8-1.3,4.3h-7.8
		C37.5,37.1,39.3,33.5,42.7,31.4z M47.1,61.6h8.1v7.8h-8.1V61.6z"/>
</g>
</svg>
