<?xml version="1.0" encoding="utf-8"?>
<!-- Generator: Adobe Illustrator 23.0.4, SVG Export Plug-In . SVG Version: 6.00 Build 0)  -->
<svg version="1.1" id="Layer_1" xmlns="http://www.w3.org/2000/svg" xmlns:xlink="http://www.w3.org/1999/xlink" x="0px" y="0px"
	 width="90" height="90" viewBox="0 0 90 90" style="enable-background:new 0 0 90 90;" xml:space="preserve">
<g fill="#ffffff">
	<g>
		<g>
			<path d="M60.6,53.7l-2.2-2.2c0.3-0.6,0.6-1.3,0.8-2h3.1c1.2,0,2.2-1,2.2-2.2v-4.7c0-1.2-1-2.2-2.2-2.2h-3.1
				c-0.2-0.7-0.5-1.3-0.8-2l2.2-2.2c0.4-0.4,0.6-1,0.7-1.5c0-0.6-0.2-1.1-0.7-1.5l-3.3-3.3c-0.4-0.4-1-0.7-1.5-0.7
				c-0.6,0-1.2,0.2-1.5,0.7L52,32.1c-0.6-0.3-1.3-0.6-2-0.8v-3.2c0-1.2-1-2.2-2.2-2.2h-4.7c-1.2,0-2.1,1-2.2,2.2v3.1
				c-0.7,0.2-1.3,0.5-2,0.8l-2.3-2.2c-0.4-0.4-1-0.6-1.5-0.7c-0.6,0-1.2,0.2-1.5,0.7L30.3,33c-0.4,0.4-0.7,1-0.7,1.5
				c0,0.6,0.2,1.1,0.7,1.5l2.2,2.2c-0.3,0.6-0.6,1.3-0.8,2h-3.2c-1.2,0-2.2,1-2.2,2.2v4.6c0,1.2,1,2.2,2.2,2.2h3.1
				c0.2,0.7,0.5,1.3,0.8,2l-2.2,2.2c-0.4,0.4-0.7,1-0.7,1.5c0,0.6,0.2,1.1,0.7,1.5l3.3,3.3c0.4,0.4,1,0.7,1.5,0.7
				c0.6,0,1.1-0.2,1.5-0.7l2.2-2.2c0.6,0.3,1.3,0.6,2,0.8v3.1c0,1.2,1,2.2,2.2,2.2h4.6c1.2,0,2.2-1,2.2-2.2v-3.1
				c0.7-0.2,1.3-0.5,2-0.8l2.2,2.2c0.4,0.4,1,0.7,1.5,0.7c0.6,0,1.2-0.2,1.5-0.7l3.3-3.3c0.9-0.6,1.1-1.8,0.5-2.6
				C60.8,53.9,60.7,53.8,60.6,53.7z M55.7,58.4L52.3,55l-0.8,0.5c-1,0.6-2,1-3.1,1.3l-0.9,0.2v4.8h-4.4v-4.8l-0.9-0.2
				c-1.1-0.3-2.1-0.7-3-1.3L38.5,55l-3.4,3.4l-3.1-3.1l3.4-3.4L34.9,51c-0.6-1-1-2-1.3-3l-0.2-0.9h-4.7v-4.4h4.8l0.2-0.9
				c0.3-1.1,0.7-2.1,1.3-3.1l0.5-0.8L32,34.6l3.1-3.1l3.4,3.4l0.8-0.5c1-0.6,2-1,3.1-1.3l0.9-0.2v-4.7h4.4v4.8l0.9,0.2
				c1.1,0.3,2.1,0.7,3.1,1.3l0.8,0.5l3.4-3.4l3.1,3.1L55.6,38l0.5,0.8c0.6,1,1,2,1.3,3.1l0.2,0.9h4.8v4.4h-4.9l-0.2,0.9
				c-0.3,1.1-0.7,2.1-1.3,3.1L55.5,52l3.4,3.4L55.7,58.4z"/>
			<path d="M45.4,38.7c-3.4,0-6.2,2.8-6.3,6.2c0,3.4,2.8,6.2,6.2,6.3c3.4,0,6.2-2.8,6.3-6.2c0,0,0,0,0,0
				C51.6,41.5,48.9,38.7,45.4,38.7z M45.4,48.8c-2.2,0-3.9-1.7-3.9-3.9c0-2.2,1.7-3.9,3.9-3.9c2.2,0,3.9,1.7,3.9,3.9c0,0,0,0,0,0
				C49.3,47,47.5,48.8,45.4,48.8z"/>
			<g>
				<path d="M45.9,77.2c-0.2,0-0.3,0-0.5,0c-2.8,0-5.2,2.1-5.5,5c-0.1,1.4,0.3,2.9,1.2,4c0.9,1.1,2.3,1.8,3.7,2l0.5,0
					c2.8,0,5.2-2.1,5.5-5c0.1-1.4-0.3-2.9-1.2-4C48.7,78,47.4,77.3,45.9,77.2 M45.4,85.9c-0.1,0-0.2,0-0.3,0
					c-0.9-0.1-1.7-0.5-2.2-1.2c-0.6-0.7-0.8-1.5-0.7-2.4c0.1-0.9,0.5-1.7,1.2-2.2c0.6-0.5,1.3-0.7,2.1-0.7h0.2
					c1.9,0.2,3.1,1.8,3,3.6C48.5,84.6,47,85.9,45.4,85.9z"/>
			</g>
			<g>
				<path d="M72,66.1c-1.3,0-2.5,0.4-3.5,1.2c-1.1,0.9-1.8,2.3-2,3.7c-0.2,1.4,0.3,2.9,1.2,4c0.9,1.1,2.3,1.8,3.7,2l0.5,0
					c3,0,5.5-2.5,5.5-5.5c0-2.6-1.9-4.9-4.4-5.4l-0.6,0C72.4,66.1,72.2,66.1,72,66.1z M72,74.8c-0.1,0-0.2,0-0.3,0
					c-0.9-0.1-1.7-0.5-2.2-1.2c-0.5-0.7-0.8-1.5-0.7-2.3c0.1-0.9,0.5-1.7,1.2-2.2c0.6-0.5,1.3-0.7,2-0.7h0.2
					c0.9,0.1,1.8,0.5,2.3,1.2c0.5,0.6,0.8,1.5,0.7,2.3c-0.1,0.9-0.5,1.6-1.2,2.2l0,0C73.5,74.6,72.8,74.8,72,74.8z"/>
			</g>
			<g>
				<path d="M83,39.4c-1.2,0-2.4,0.4-3.4,1.2c-1.1,0.9-1.9,2.2-2,3.7c-0.2,1.5,0.3,2.9,1.2,4s2.2,1.9,3.7,2l0.1,0l0.5,0
					c2.8,0,5.2-2.1,5.5-5c0.1-1.4-0.3-2.9-1.2-4c-1-1.1-2.3-1.8-3.7-2C83.4,39.4,83.2,39.4,83,39.4z M83.1,48.2c-0.1,0-0.1,0-0.2,0
					l-0.2,0c-0.9-0.1-1.7-0.5-2.2-1.2c-0.5-0.7-0.8-1.5-0.7-2.4c0.2-1.7,1.6-2.9,3.2-2.9c0,0,0,0,0,0h0.2c0.9,0.1,1.8,0.5,2.3,1.2
					c0.5,0.7,0.8,1.5,0.7,2.3c0,0.8-0.4,1.6-1.1,2.2C84.6,47.9,83.9,48.2,83.1,48.2z"/>
			</g>
			<g>
				<path d="M71.5,23.8c0.1,0,0.2,0,0.3,0c0.1,0,0.2,0,0.3,0c1.3,0,2.5-0.5,3.5-1.3c1.1-0.9,1.8-2.3,2-3.7c0.1-1.4-0.3-2.9-1.2-4
					c-0.9-1.1-2.3-1.8-3.7-2c-1.4-0.1-2.9,0.3-4,1.2c-1.1,0.9-1.8,2.3-2,3.7c-0.1,1.4,0.3,2.9,1.2,4C68.8,22.9,70.1,23.6,71.5,23.8z
					 M72,21.6c-0.1,0-0.2,0-0.3,0c-0.9-0.1-1.7-0.5-2.2-1.2c-0.5-0.7-0.8-1.5-0.7-2.4c0.1-0.9,0.5-1.7,1.2-2.3
					c0.6-0.5,1.3-0.7,2.1-0.7h0.2c0.9,0.1,1.7,0.5,2.3,1.2c0.6,0.7,0.8,1.5,0.7,2.4c-0.1,0.9-0.5,1.7-1.2,2.2
					C73.5,21.3,72.7,21.6,72,21.6z"/>
			</g>
			<g>
				<path d="M44.9,12.7c0.1,0,0.2,0,0.3,0c0.1,0,0.2,0,0.3,0c1.3,0,2.5-0.5,3.5-1.3c1.1-0.9,1.8-2.3,2-3.7c0.3-3-1.9-5.7-4.9-6
					c-3-0.3-5.7,1.9-6,4.9c-0.1,1.4,0.3,2.9,1.2,4C42.1,11.9,43.4,12.6,44.9,12.7z M45.3,10.5c-0.1,0-0.2,0-0.3,0
					c-0.9-0.1-1.7-0.5-2.2-1.2c-0.5-0.6-0.8-1.5-0.7-2.3c0.2-1.7,1.7-3,3.3-2.9h0.2c1.8,0.2,3.2,1.8,3,3.5c-0.1,0.9-0.5,1.7-1.2,2.2
					C46.8,10.2,46.1,10.5,45.3,10.5z"/>
			</g>
			<g>
				<path d="M18.8,12.8c-2.8,0-5.2,2.2-5.5,5c-0.1,1.5,0.3,2.9,1.2,4c1,1.3,2.5,2,4.2,2h0c0,0,0,0,0,0c1.3,0,2.5-0.5,3.5-1.3
					c1.1-1,1.8-2.3,2-3.7c0.1-1.4-0.3-2.9-1.2-4c-0.9-1.1-2.3-1.8-3.7-2C19.1,12.8,19,12.8,18.8,12.8z M18.8,21.6
					c-0.9,0-1.9-0.4-2.5-1.2c-1.1-1.3-1-3.1,0.2-4.3v0l0.3-0.3c0.6-0.5,1.3-0.7,2.1-0.7H19c0.9,0.1,1.7,0.5,2.3,1.2
					c0.6,0.7,0.8,1.5,0.7,2.4c-0.1,0.9-0.5,1.7-1.2,2.2C20.2,21.3,19.5,21.6,18.8,21.6z"/>
			</g>
			<g>
				<path d="M7.7,39.4c-1.3,0-2.5,0.4-3.5,1.3c-1.1,0.9-1.8,2.3-2,3.7c-0.3,3,1.9,5.7,4.9,6l0.5,0c2.8,0,5.2-2.1,5.5-5
					c0.2-1.4-0.3-2.9-1.2-4c-0.9-1.1-2.3-1.8-3.7-2C8,39.4,7.9,39.4,7.7,39.4z M7.7,48.2c-0.1,0-0.2,0-0.3,0l0,0
					c-1.8-0.2-3-1.8-2.8-3.6c0.2-1.6,1.5-2.8,3.1-2.9l0.3,0c0.9,0.1,1.7,0.5,2.3,1.2c0.5,0.7,0.8,1.5,0.7,2.3
					C10.8,47,9.4,48.2,7.7,48.2z"/>
			</g>
			<g>
				<path d="M18.8,66.1c-1.2,0-2.5,0.4-3.5,1.2c-1.1,0.9-1.8,2.3-2,3.7c-0.2,1.4,0.3,2.9,1.2,4c1.9,2.3,5.4,2.7,7.7,0.8
					c2.2-1.8,2.6-5.1,1-7.4L23,68.1c-0.9-1.1-2.3-1.8-3.7-2C19.1,66.1,18.9,66.1,18.8,66.1z M18.8,74.8c-0.9,0-1.8-0.4-2.5-1.1
					c-0.6-0.7-0.8-1.6-0.8-2.4c0.1-0.9,0.5-1.7,1.2-2.2c0.6-0.5,1.3-0.7,2.1-0.7H19c0.9,0.1,1.8,0.5,2.3,1.2
					c1.1,1.3,0.9,3.4-0.4,4.5C20.2,74.6,19.5,74.8,18.8,74.8z"/>
			</g>
			<rect x="17.2" y="44" width="5.2" height="2.3"/>
			<rect x="24.9" y="62.1" transform="matrix(0.7071 -0.7071 0.7071 0.7071 -36.6775 37.9289)" width="5.2" height="2.3"/>
			<rect x="44.5" y="68" width="2.3" height="5.2"/>
			<rect x="62.5" y="60.3" transform="matrix(0.7071 -0.7071 0.7071 0.7071 -25.812 63.4655)" width="2.3" height="5.2"/>
			<rect x="68.4" y="43.5" width="5.2" height="2.3"/>
			<rect x="60.8" y="25.5" transform="matrix(0.7071 -0.7071 0.7071 0.7071 -0.2782 52.6066)" width="5.2" height="2.3"/>
			<rect x="44" y="16.7" width="2.3" height="5.2"/>
			<rect x="25.9" y="24.4" transform="matrix(0.7071 -0.7071 0.7071 0.7071 -11.1409 27.0634)" width="2.3" height="5.2"/>
		</g>
	</g>
</g>
</svg>
