<?xml version="1.0" encoding="utf-8"?>
<!-- Generator: Adobe Illustrator 23.0.3, SVG Export Plug-In . SVG Version: 6.00 Build 0)  -->
<svg version="1.1" id="Layer_1" xmlns="http://www.w3.org/2000/svg" xmlns:xlink="http://www.w3.org/1999/xlink" x="0px" y="0px"
	 width="90" height="90" viewBox="0 0 90 90" style="enable-background:new 0 0 90 90;" xml:space="preserve">
<g fill="#ffffff">
	<g>
		<path d="M45,86C22.4,86,4,67.6,4,45S22.4,4,45,4s41,18.4,41,41S67.6,86,45,86z M45,7.5C24.3,7.5,7.5,24.3,7.5,45
			S24.3,82.5,45,82.5S82.5,65.7,82.5,45S65.7,7.5,45,7.5z"/>
	</g>
	<g>
		<path d="M61.6,72.4c-0.2,0-0.6-0.1-0.9-0.2l-15.9-8.3L29,72.2c-0.6,0.4-1.3,0.2-1.8-0.1c-0.5-0.4-0.9-1.1-0.7-1.7l3.1-17.6
			L16.9,40.2c-0.5-0.5-0.6-1.1-0.5-1.8c0.2-0.6,0.7-1.1,1.5-1.2l17.7-2.6l8-16c0.2-0.6,0.9-1,1.6-1s1.2,0.4,1.6,1l8,16l17.7,2.6
			c0.6,0.1,1.2,0.6,1.5,1.2c0.2,0.6,0,1.3-0.5,1.8l-13,12.5l2.9,17.6c0.1,0.6-0.1,1.3-0.7,1.7C62.4,72.3,62,72.4,61.6,72.4z
			 M45,60.2c0.2,0,0.6,0.1,0.9,0.2l13.6,7.1l-2.7-15.2c-0.1-0.6,0.1-1.1,0.5-1.6l11-10.6l-15.2-2.2c-0.6-0.1-1.1-0.5-1.3-1L45,23.2
			l-6.7,13.7c-0.2,0.5-0.7,0.9-1.3,1l-15.2,2.2l11,10.6c0.4,0.4,0.6,1,0.5,1.6l-2.6,15.1l13.6-7.1C44.4,60.2,44.8,60.2,45,60.2z"/>
	</g>
</g>
</svg>
