<?xml version="1.0" encoding="utf-8"?>
<!-- Generator: Adobe Illustrator 23.0.3, SVG Export Plug-In . SVG Version: 6.00 Build 0)  -->
<svg version="1.1" id="Layer_1" xmlns="http://www.w3.org/2000/svg" xmlns:xlink="http://www.w3.org/1999/xlink" x="0px" y="0px"
	 width="90" height="90" viewBox="0 0 90 90" style="enable-background:new 0 0 90 90;" xml:space="preserve">
<style type="text/css">
	.st0{fill:none;}
	.st1{stroke:#ffffff;stroke-width:0.5;stroke-miterlimit:10;}
</style>
<g fill="#ffffff">
	<path class="st0" d="M56.3,56.5c1.5-1.5,2.8-3.1,4-4.9c7.6-11.7,5.9-27.3-4-37.2c-5.6-5.6-13.1-8.7-21-8.7s-15.4,3.1-21,8.7
		c-5.6,5.6-8.7,13.1-8.7,21s3.1,15.4,8.7,21c5.6,5.6,13.1,8.7,21,8.7c5.7,0,11.3-1.6,16-4.7C53,59.3,54.7,58,56.3,56.5z"/>
	<path class="st0" d="M62,55.6c-0.2,0.2-0.4,0.5-0.6,0.8c0,0-0.1,0.1-0.1,0.1c-0.2,0.3-0.5,0.5-0.7,0.8c-0.1,0.1-0.2,0.2-0.2,0.2
		c-0.2,0.2-0.3,0.4-0.5,0.6c-0.1,0.1-0.2,0.2-0.2,0.2c-0.2,0.2-0.5,0.5-0.7,0.7c0,0,0,0,0,0s0,0,0,0c-0.2,0.2-0.5,0.5-0.8,0.7
		C58,60,58,60.1,57.9,60.1c-0.2,0.2-0.4,0.4-0.6,0.5c-0.1,0.1-0.2,0.2-0.2,0.2c-0.3,0.2-0.6,0.5-0.8,0.7c-0.1,0-0.1,0.1-0.2,0.1
		c-0.2,0.2-0.5,0.4-0.7,0.6c0,0-0.1,0.1-0.1,0.1l5.3,5.3l6.9-6.9L62,55.5C62,55.5,62,55.6,62,55.6z"/>
	<path class="st0" d="M75.6,82.8c0.9,0.9,2.1,1.4,3.4,1.4c1.3,0,2.5-0.5,3.4-1.4s1.4-2.1,1.4-3.4c0-1.3-0.5-2.5-1.4-3.4l-6.8-6.8
		l-6.9,6.9L75.6,82.8z"/>
	<path d="M61.3,56.5c0,0,0.1-0.1,0.1-0.1C61.3,56.4,61.3,56.4,61.3,56.5z"/>
	<path d="M60.4,57.5c0.1-0.1,0.2-0.2,0.2-0.2C60.5,57.4,60.5,57.4,60.4,57.5z"/>
	<path d="M59.6,58.3c0.1-0.1,0.2-0.2,0.2-0.2C59.8,58.2,59.7,58.3,59.6,58.3z"/>
	<path d="M56,61.7c0.1,0,0.1-0.1,0.2-0.1C56.1,61.6,56,61.6,56,61.7z"/>
	<path d="M57.8,60.1c0.1-0.1,0.2-0.2,0.3-0.2C58,60,57.9,60,57.8,60.1z"/>
	<path d="M57,60.9c0.1-0.1,0.2-0.2,0.2-0.2C57.2,60.7,57.1,60.8,57,60.9z"/>
	<path d="M58.9,59.1C58.9,59.1,58.9,59.1,58.9,59.1C58.9,59.1,58.9,59.1,58.9,59.1C58.9,59.1,58.9,59.1,58.9,59.1
		C58.9,59.1,58.9,59.1,58.9,59.1z"/>
	<path d="M62,55.6c0,0,0.1-0.1,0.1-0.1l5.3,5.3l2.6-2.6l-5.8-5.8c-0.3,0.4-0.5,0.9-0.8,1.3C62.9,54.3,62.4,55,62,55.6z"/>
	<path d="M55.1,62.4c0,0,0.1-0.1,0.1-0.1c-0.7,0.5-1.4,1-2,1.4c-0.4,0.3-0.9,0.5-1.3,0.8l5.8,5.8l2.6-2.6L55.1,62.4z"/>
	<path d="M85.2,73.3l-6.8-6.8l-2.6,2.6l6.8,6.8c0.9,0.9,1.4,2.1,1.4,3.4c0,1.3-0.5,2.5-1.4,3.4c-0.9,0.9-2.1,1.4-3.4,1.4
		c-1.3,0-2.5-0.5-3.4-1.4L68.9,76l-2.6,2.6l6.8,6.8c1.6,1.6,3.8,2.5,6.1,2.5c2.3,0,4.5-0.9,6.1-2.5c1.6-1.6,2.5-3.8,2.5-6.1
		C87.7,77.1,86.8,74.9,85.2,73.3z"/>
	<path d="M58.1,59.9c0.3-0.2,0.5-0.5,0.8-0.7C58.6,59.4,58.4,59.6,58.1,59.9z"/>
	<path d="M56.2,61.6c0.3-0.2,0.6-0.5,0.8-0.7C56.7,61.1,56.4,61.3,56.2,61.6z"/>
	<path d="M58.9,59.1c0.2-0.2,0.5-0.5,0.7-0.7C59.4,58.6,59.2,58.8,58.9,59.1z"/>
	<path d="M57.2,60.7c0.2-0.2,0.4-0.4,0.6-0.5C57.6,60.3,57.5,60.5,57.2,60.7z"/>
	<path d="M55.3,62.2c0.2-0.2,0.5-0.4,0.7-0.6C55.7,61.9,55.5,62.1,55.3,62.2z"/>
	<path d="M60.6,57.3c0.2-0.3,0.5-0.5,0.7-0.8C61.1,56.7,60.8,57,60.6,57.3z"/>
	<path d="M59.9,58.1c0.2-0.2,0.4-0.4,0.5-0.6C60.2,57.7,60,57.9,59.9,58.1z"/>
	<path d="M61.4,56.3c0.2-0.2,0.4-0.5,0.6-0.8C61.8,55.9,61.6,56.1,61.4,56.3z"/>
	<path d="M68.6,32.1c-0.8-7.7-4.2-14.9-9.7-20.4c-6.3-6.3-14.7-9.8-23.7-9.8s-17.4,3.5-23.7,9.8C5.1,18,1.7,26.4,1.7,35.4
		c0,8.9,3.5,17.4,9.8,23.7s14.7,9.8,23.7,9.8l0,0c5.9,0,11.7-1.5,16.7-4.5c0.4-0.2,0.9-0.5,1.3-0.8c0.7-0.5,1.4-0.9,2-1.4
		c0.2-0.2,0.5-0.4,0.7-0.6c0.1,0,0.1-0.1,0.2-0.1c0.3-0.2,0.6-0.5,0.8-0.7c0.1-0.1,0.2-0.2,0.2-0.2c0.2-0.2,0.4-0.4,0.6-0.5
		c0.1-0.1,0.2-0.2,0.3-0.2c0.3-0.2,0.5-0.5,0.8-0.7c0,0,0,0,0,0c0,0,0,0,0,0c0.2-0.2,0.5-0.5,0.7-0.7c0.1-0.1,0.2-0.2,0.2-0.2
		c0.2-0.2,0.4-0.4,0.5-0.6c0.1-0.1,0.2-0.2,0.2-0.2c0.2-0.3,0.5-0.5,0.7-0.8c0,0,0.1-0.1,0.1-0.1c0.2-0.2,0.4-0.5,0.6-0.8
		c0.5-0.7,1-1.3,1.4-2c0.3-0.4,0.5-0.9,0.8-1.3C67.7,46.2,69.3,39.1,68.6,32.1z M60.2,51.6c-1.1,1.8-2.5,3.4-4,4.9
		c-1.5,1.5-3.2,2.9-5,4.1c-4.8,3.1-10.3,4.7-16,4.7c-8,0-15.4-3.1-21-8.7c-5.6-5.6-8.7-13.1-8.7-21s3.1-15.4,8.7-21
		c5.6-5.6,13.1-8.7,21-8.7s15.4,3.1,21,8.7C66.1,24.2,67.8,39.9,60.2,51.6z"/>
	<path d="M71.9,56.2l-2,2l-2.6,2.6l-6.9,6.9l-2.6,2.6l-2.1,2.2l8.4,8.4l2.1-2.2l2.6-2.6l6.9-6.9l2.6-2.6l2-2L71.9,56.2z M64.9,74.7
		l-0.9,1.1l-3.1-3.1l6-6.1l4.5-4.5l0.8-0.8l3.1,3.1l-0.8,0.8L64.9,74.7z"/>
	<path d="M71.3,62.1l-4.5,4.5L71.3,62.1z"/>
</g>
<g fill="#ffffff">
	<path class="st1" d="M20.1,49.5h22.4c2.1,0,3.8-1.7,3.8-3.8v-0.6l6.8,4.8c0.2,0.2,0.5,0.3,0.8,0.3c0.2,0,0.5-0.1,0.7-0.2
		c0.5-0.2,0.8-0.7,0.8-1.3V30.3c0-0.5-0.3-1-0.8-1.3c-0.5-0.2-1.1-0.2-1.5,0.1l-6.8,4.8v-0.6c0-2.1-1.7-3.8-3.8-3.8H20.1
		c-2.1,0-3.8,1.7-3.8,3.8v12.3C16.3,47.8,18,49.5,20.1,49.5z M52.6,33.1V46l-6.3-4.4v-4.1L52.6,33.1z M43.4,45.7
		c0,0.5-0.4,0.9-0.9,0.9H20.1c-0.5,0-0.9-0.4-0.9-0.9V33.4c0-0.5,0.4-0.9,0.9-0.9h22.4c0.5,0,0.9,0.4,0.9,0.9V45.7z"/>
	<path class="st1" d="M36.6,28.2c3.4,0,6.1-2.8,6.1-6.2s-2.8-6.2-6.1-6.2s-6.1,2.8-6.1,6.2S33.3,28.2,36.6,28.2z M36.6,18.5
		c1.8,0,3.2,1.5,3.2,3.4s-1.5,3.4-3.2,3.4s-3.2-1.5-3.2-3.4S34.8,18.5,36.6,18.5z"/>
	<path class="st1" d="M24.4,27.1c2.8,0,5.1-2.3,5.1-5.2c0-2.8-2.3-5.2-5.1-5.2s-5.1,2.3-5.1,5.2S21.6,27.1,24.4,27.1z M24.4,19.6
		c1.2,0,2.2,1,2.2,2.3c0,1.3-1,2.3-2.2,2.3c-1.2,0-2.2-1-2.2-2.3C22.2,20.7,23.2,19.6,24.4,19.6z"/>
</g>
</svg>
