<svg version="1.1" width="395.1364829396326" height="395.12598425196853" viewBox="0.0 0.0 395.1364829396326 395.12598425196853" fill="none" stroke="none" stroke-linecap="square" stroke-miterlimit="10" xmlns:xlink="http://www.w3.org/1999/xlink" xmlns="http://www.w3.org/2000/svg"><clipPath id="p.0"><path d="m0 0l395.13647 0l0 395.12598l-395.13647 0l0 -395.12598z" clip-rule="nonzero"/></clipPath><g clip-path="url(#p.0)"><path fill="#000000" fill-opacity="0.0" d="m0 0l395.13647 0l0 395.12598l-395.13647 0z" fill-rule="evenodd"/><path fill="#0076bd" d="m0 197.5433l0 0c0 -109.10015 88.44315 -197.5433 197.5433 -197.5433l0 0c52.39174 0 102.637665 20.812538 139.6842 57.859097c37.04657 37.04656 57.8591 87.292465 57.8591 139.6842l0 0c0 109.10016 -88.443146 197.5433 -197.5433 197.5433l0 0c-109.10015 0 -197.5433 -88.443146 -197.5433 -197.5433z" fill-rule="evenodd"/><path fill="#f3f3f3" d="m137.10236 334.92914l0 -7.5551147l120.8819 0l0 7.5551147zm0 -15.1102295l0 -15.11026l120.8819 0l0 15.11026zm0 -22.665375l0 -116.11417l-60.44094 0l120.88189 -120.88188l120.8819 120.88188l-60.44095 0l0 116.11417z" fill-rule="evenodd"/></g></svg>