<svg xmlns="http://www.w3.org/2000/svg" width="77.171" height="75.651" viewBox="0 0 77.171 75.651">
  <g id="Group_121" data-name="Group 121" transform="translate(-14311.257 224.617)">
    <g id="Group_120" data-name="Group 120" transform="translate(102 -8)">
      <path id="Path_2371" data-name="Path 2371" d="M14223.44-146.732a44.771,44.771,0,0,1-9.254-11.471c-3.088-5.1-3.43-10.786-3.43-17.149,0-13.864,5.573-19.722,11.575-26.581a71.128,71.128,0,0,1,10.719-7.288,33.776,33.776,0,0,1,9.432-2.572c5.359-.643,6.032-.45,8.569,0" transform="translate(0 -3)" fill="none" stroke="#3c7cbe" stroke-linecap="round" stroke-width="3"/>
      <path id="Path_2372" data-name="Path 2372" d="M14244.4-147.078s4.142-3.106,8.669-11.125c2.551-4.515,3.859-11.023,3.859-16.292a37.438,37.438,0,0,0-13.291-28.725,34.836,34.836,0,0,0-7.25-4.862c-3.543-1.7-4.288-3-13.291-3.859" transform="translate(28.001 -3)" fill="none" stroke="#3c7cbe" stroke-linecap="round" stroke-width="3"/>
      <path id="Path_2384" data-name="Path 2384" d="M14249.507-143.373a33.416,33.416,0,0,1-5.507,1.349,53.606,53.606,0,0,1-8.261.557,34.449,34.449,0,0,1-5.773-.557,49.734,49.734,0,0,1-6.306-1.349" transform="translate(12 -1)" fill="none" stroke="#3c7cbe" stroke-linecap="round" stroke-width="3"/>
    </g>
    <line id="Line_129" data-name="Line 129" y1="49" transform="translate(14349.5 -208.5)" fill="none" stroke="#3c7cbe" stroke-linecap="round" stroke-width="3"/>
    <line id="Line_130" data-name="Line 130" y1="17" x2="15" transform="translate(14334.5 -208.5)" fill="none" stroke="#3c7cbe" stroke-linecap="round" stroke-width="3"/>
    <line id="Line_131" data-name="Line 131" x1="15" y1="17" transform="translate(14349.5 -208.5)" fill="none" stroke="#3c7cbe" stroke-linecap="round" stroke-width="3"/>
  </g>
</svg>
