<svg xmlns="http://www.w3.org/2000/svg" width="44" height="44" viewBox="0 0 44 44">
  <g id="Group_102" data-name="Group 102" transform="translate(-14565 414)">
    <g id="Rectangle_410" data-name="Rectangle 410" transform="translate(14565 -414)" fill="none" stroke="#707070" stroke-width="2">
      <rect width="44" height="44" rx="5" stroke="none"/>
      <rect x="1" y="1" width="42" height="42" rx="4" fill="none"/>
    </g>
    <g id="Group_96" data-name="Group 96" transform="matrix(0.695, -0.719, 0.719, 0.695, 4346.227, 10658.5)">
      <path id="Path_2321" data-name="Path 2321" d="M15076.407-332.412a11.954,11.954,0,0,0,.054-2.164,26.609,26.609,0,0,0-.193-3.436c-.156-1.1-.621-3.539-2.023-4.356s-1.775-.878-3.236,0-2.012,3.6-2.162,4.356a30.9,30.9,0,0,0-.246,3.954,11.972,11.972,0,0,0,.246,3.028c.463,1.5.813,2.875,2.162,3.833s1.455.7,2.215.266" transform="translate(-9.281 11.305)" fill="none" stroke="#707070" stroke-linecap="round" stroke-linejoin="round" stroke-width="2"/>
      <path id="Path_2322" data-name="Path 2322" d="M15068.6-337.171a11.732,11.732,0,0,0,0,2.116,26.155,26.155,0,0,0,.2,3.436c.154,1.1.618,3.539,2.019,4.356s1.774.878,3.236,0,2.01-3.6,2.164-4.356a32.659,32.659,0,0,0,.244-3.954,12.309,12.309,0,0,0-.244-3.028c-.464-1.5-.814-2.875-2.164-3.833s-1.49-.817-2.253-.378" transform="translate(-10.002 21.432)" fill="none" stroke="#707070" stroke-linecap="round" stroke-linejoin="round" stroke-width="2"/>
    </g>
  </g>
</svg>
