<svg xmlns="http://www.w3.org/2000/svg" width="44" height="44" viewBox="0 0 44 44">
  <g id="Group_119" data-name="Group 119" transform="translate(-14564 200)">
    <g id="Group_114" data-name="Group 114" transform="translate(60)">
      <g id="Rectangle_419" data-name="Rectangle 419" transform="translate(14504 -200)" fill="none" stroke="#707070" stroke-width="2">
        <rect width="44" height="44" rx="5" stroke="none"/>
        <rect x="1" y="1" width="42" height="42" rx="4" fill="none"/>
      </g>
    </g>
    <g id="Group_115" data-name="Group 115" transform="translate(0 156)">
      <g id="Polygon_6" data-name="Polygon 6" transform="translate(14581 -348) rotate(90)" fill="none">
        <path d="M4.676,1.2a1,1,0,0,1,1.648,0l3.6,5.235A1,1,0,0,1,9.1,8H1.9a1,1,0,0,1-.824-1.567Z" stroke="none"/>
        <path d="M 5.499998092651367 3.530269145965576 L 3.80205774307251 6.000002384185791 L 7.197939872741699 6.000002384185791 L 5.499998092651367 3.530269145965576 M 5.499999523162842 0.7651324272155762 C 5.812682151794434 0.7651324272155762 6.125364303588867 0.9096221923828125 6.324039459228516 1.198602199554443 L 9.923009872436523 6.433472633361816 C 10.37916946411133 7.096972465515137 9.904150009155273 8.000001907348633 9.098969459533691 8.000001907348633 L 1.901029586791992 8.000001907348633 C 1.095849990844727 8.000001907348633 0.6208295822143555 7.096972465515137 1.07698917388916 6.433472633361816 L 4.675959587097168 1.198602199554443 C 4.874634742736816 0.9096221923828125 5.18731689453125 0.7651324272155762 5.499999523162842 0.7651324272155762 Z" stroke="none" fill="#707070"/>
      </g>
    </g>
    <g id="Group_116" data-name="Group 116" transform="translate(0 55)">
      <g id="Group_98" data-name="Group 98" transform="translate(14568.613 -229.612)">
        <path id="Path_2332" data-name="Path 2332" d="M25.226,35.864l-2.6-2.764L17.2,38.952l.593.559,4.833-5.234,4.889,5.234.565-.559-2.289-2.47L27.8,34.276l4.3,5.234.593-.529L27.8,33.1Z" transform="translate(-17.2 -28.196)" fill="#707070"/>
        <path id="Path_2333" data-name="Path 2333" d="M41.364,26.529a1.789,1.789,0,0,0,1.764-1.764A1.77,1.77,0,0,0,41.364,23,1.789,1.789,0,0,0,39.6,24.764,1.769,1.769,0,0,0,41.364,26.529Zm0-2.647a.948.948,0,0,1,.941.941.941.941,0,1,1-.941-.941Z" transform="translate(-33.341 -20.969)" fill="#707070"/>
        <line id="Line_66" data-name="Line 66" x2="15.352" transform="translate(0.043 14.455)" fill="none" stroke="#707070" stroke-linecap="round" stroke-width="2"/>
        <line id="Line_67" data-name="Line 67" y1="14.455" transform="translate(0.043)" fill="none" stroke="#707070" stroke-linecap="round" stroke-width="2"/>
        <line id="Line_68" data-name="Line 68" y1="13.939" transform="translate(15.395 0.516)" fill="none" stroke="#707070" stroke-linecap="round" stroke-width="2"/>
        <line id="Line_69" data-name="Line 69" x2="15.352" transform="translate(0.043)" fill="none" stroke="#707070" stroke-linecap="round" stroke-width="2"/>
      </g>
    </g>
    <g id="Group_117" data-name="Group 117" transform="translate(21 97)">
      <g id="Group_97" data-name="Group 97" transform="translate(14568.557 -289.686)">
        <line id="Line_113" data-name="Line 113" x2="4.563" transform="translate(0.169 2.365)" fill="none" stroke="#707070" stroke-width="2"/>
        <line id="Line_114" data-name="Line 114" x2="11.134" transform="translate(0 4.911)" fill="none" stroke="#707070" stroke-width="2"/>
        <path id="Path_2362" data-name="Path 2362" d="M0,0H10.781" transform="translate(0.167 7.324)" fill="none" stroke="#707070" stroke-width="2"/>
        <line id="Line_116" data-name="Line 116" x2="2.652" transform="translate(8.295 0)" fill="none" stroke="#707070" stroke-width="2"/>
        <line id="Line_117" data-name="Line 117" x2="10.798" transform="translate(0.169 9.64)" fill="none" stroke="#707070" stroke-width="2"/>
      </g>
    </g>
    <g id="Group_118" data-name="Group 118" transform="translate(24 239)">
      <g id="Group_96" data-name="Group 96" transform="matrix(0.695, -0.719, 0.719, 0.695, 14566.438, -409.511)">
        <path id="Path_2321" data-name="Path 2321" d="M3.55,4.815a5.442,5.442,0,0,0,.024-.984,12.111,12.111,0,0,0-.088-1.562c-.071-.5-.282-1.608-.92-1.98A1.08,1.08,0,0,0,1.1.289C.432.688.182,1.928.113,2.269A14.013,14.013,0,0,0,0,4.066,5.43,5.43,0,0,0,.113,5.442,2.911,2.911,0,0,0,1.1,7.185c.613.436.661.32,1.006.121" transform="translate(0.352 0)" fill="none" stroke="#696969" stroke-linecap="round" stroke-linejoin="round" stroke-width="2"/>
        <path id="Path_2322" data-name="Path 2322" d="M.027,2.718a5.3,5.3,0,0,0,0,.962A11.884,11.884,0,0,0,.115,5.242c.07.5.281,1.608.917,1.98a1.08,1.08,0,0,0,1.471,0c.664-.4.914-1.639.984-1.98a14.894,14.894,0,0,0,.111-1.8,5.6,5.6,0,0,0-.111-1.376A2.914,2.914,0,0,0,2.5.326C1.889-.11,1.826-.046,1.479.154" transform="translate(0 4.537)" fill="none" stroke="#696969" stroke-linecap="round" stroke-linejoin="round" stroke-width="2"/>
      </g>
    </g>
    <line id="Line_124" data-name="Line 124" x2="15.352" transform="translate(14587.656 -180.157)" fill="none" stroke="#707070" stroke-linecap="round" stroke-width="2"/>
    <line id="Line_125" data-name="Line 125" y1="14.455" transform="translate(14587.656 -194.612)" fill="none" stroke="#707070" stroke-linecap="round" stroke-width="2"/>
    <line id="Line_126" data-name="Line 126" y1="13.939" transform="translate(14603.008 -194.096)" fill="none" stroke="#707070" stroke-linecap="round" stroke-width="2"/>
    <line id="Line_127" data-name="Line 127" x2="15.352" transform="translate(14587.656 -194.612)" fill="none" stroke="#707070" stroke-linecap="round" stroke-width="2"/>
  </g>
</svg>
