<svg xmlns="http://www.w3.org/2000/svg" width="44" height="44" viewBox="0 0 44 44">
  <g id="Group_107" data-name="Group 107" transform="translate(-14504 250)">
    <g id="Rectangle_416" data-name="Rectangle 416" transform="translate(14504 -250)" fill="none" stroke="#707070" stroke-width="2">
      <rect width="44" height="44" rx="5" stroke="none"/>
      <rect x="1" y="1" width="42" height="42" rx="4" fill="none"/>
    </g>
    <g id="pdf" transform="translate(14512.25 -242.124)">
      <path id="Path_2323" data-name="Path 2323" d="M27.765,21.03c-1-1.8-5.361-2.946-9.215-3.163q-.522-.559-1.064-1.177C14.174,12.9,12.833,7.4,12.332,4.484c-.06-.618-.125-1.131-.18-1.514-.045-.3-.138-.939-.8-.939a.754.754,0,0,0-.56.252,1.014,1.014,0,0,0-.159.891c.047.383.118.895.218,1.479.282,2.96.415,8.6-1.863,13.072q-.356.7-.709,1.342c-4.263,1.24-7.7,3.451-8.207,5.285a1.812,1.812,0,0,0,.447,1.793,2.6,2.6,0,0,0,1.925.863c2.017,0,4.316-2.246,6.833-6.674a21.615,21.615,0,0,1,3.309-.609c.419-.042,1.1-.131,1.514-.195a20.747,20.747,0,0,1,3.783-.2c3.09,3.212,5.617,4.841,7.51,4.841a2.638,2.638,0,0,0,2.369-1.4A1.727,1.727,0,0,0,27.765,21.03ZM2.445,25.52a1.134,1.134,0,0,1-.849-.4.33.33,0,0,1-.087-.368c.26-.944,2.442-2.563,5.631-3.738C5.338,23.852,3.613,25.52,2.445,25.52Zm11.428-7.458c-.4.061-1.039.144-1.436.186a21.779,21.779,0,0,0-2.215.339l.094-.185a21.18,21.18,0,0,0,2.065-7.843,21.907,21.907,0,0,0,3.985,7.111c.048.055.1.111.145.167A20.614,20.614,0,0,0,13.873,18.062ZM26.466,22.04a1.163,1.163,0,0,1-1.1.641h0c-1.183,0-3-1.12-5.182-3.174,3.371.423,5.84,1.444,6.283,2.244A.245.245,0,0,1,26.466,22.04Z" transform="translate(0)" fill="#707070"/>
    </g>
  </g>
</svg>
