<svg xmlns="http://www.w3.org/2000/svg" width="44" height="44" viewBox="0 0 44 44">
  <g id="Group_105" data-name="Group 105" transform="translate(-14504 300)">
    <g id="Rectangle_415" data-name="Rectangle 415" transform="translate(14504 -300)" fill="none" stroke="#707070" stroke-width="2">
      <rect width="44" height="44" rx="5" stroke="none"/>
      <rect x="1" y="1" width="42" height="42" rx="4" fill="none"/>
    </g>
    <g id="Group_99" data-name="Group 99" transform="translate(-61.5 -166)">
      <g id="Path_2360" data-name="Path 2360" transform="translate(14577 -125.98)" fill="none">
        <path d="M10.99,0c.114.484,0,10.99,0,10.99s10.508.178,10.99,0A10.99,10.99,0,1,1,10.99,0Z" stroke="none"/>
        <path d="M 9.039146423339844 2.213136672973633 C 5.016645431518555 3.10637092590332 1.999994277954102 6.702397346496582 1.999994277954102 10.98989486694336 C 1.999994277954102 15.94693470001221 6.032844543457031 19.97978591918945 10.98989486694336 19.97978591918945 C 15.23200035095215 19.97978591918945 18.79734230041504 17.02605056762695 19.73751258850098 13.06741905212402 C 19.48835945129395 13.06860256195068 19.2155876159668 13.06919479370117 18.91643524169922 13.06919479370117 C 15.68065452575684 13.06919479370117 11.00281524658203 12.99040508270264 10.95594501495361 12.98960494995117 L 8.968504905700684 12.95585441589355 L 8.990015029907227 10.96825504302979 C 9.020074844360352 8.189598083496094 9.045784950256348 4.477212905883789 9.039146423339844 2.213136672973633 M 10.98989486694336 -5.7220458984375e-06 C 11.10357475280762 0.4838943481445313 10.98989486694336 10.98989486694336 10.98989486694336 10.98989486694336 C 10.98989486694336 10.98989486694336 15.66020107269287 11.06919288635254 18.91643905639648 11.06919288635254 C 20.54485511779785 11.06919288635254 21.81917953491211 11.04937553405762 21.97978401184082 10.98989486694336 C 21.97978401184082 17.05944442749023 17.05944442749023 21.97978401184082 10.98989486694336 21.97978401184082 C 4.920345306396484 21.97978401184082 -5.7220458984375e-06 17.05944442749023 -5.7220458984375e-06 10.98989486694336 C -5.7220458984375e-06 4.920345306396484 4.920345306396484 -5.7220458984375e-06 10.98989486694336 -5.7220458984375e-06 Z" stroke="none" fill="#707070"/>
      </g>
      <path id="Path_2361" data-name="Path 2361" d="M14914.568-552.9c1.3-.078-.926-4.46-3.684-7.086s-7.348-3.42-7.348-3.42V-552.9S14912.043-552.747,14914.568-552.9Z" transform="translate(-313.89 436.282)" fill="none" stroke="#707070" stroke-width="2"/>
      <line id="Line_118" data-name="Line 118" x2="6" transform="translate(14573 -100.5)" fill="none" stroke="#707070" stroke-linecap="round" stroke-width="2"/>
      <line id="Line_119" data-name="Line 119" x2="6" transform="translate(14573 -96)" fill="none" stroke="#707070" stroke-linecap="round" stroke-width="2"/>
      <line id="Line_120" data-name="Line 120" x2="19" transform="translate(14583 -100.5)" fill="none" stroke="#707070" stroke-linecap="round" stroke-width="2"/>
      <line id="Line_121" data-name="Line 121" x2="19" transform="translate(14583 -96)" fill="none" stroke="#707070" stroke-linecap="round" stroke-width="2"/>
    </g>
  </g>
</svg>
