<svg xmlns="http://www.w3.org/2000/svg" width="44" height="44" viewBox="0 0 44 44">
  <g id="Group_104" data-name="Group 104" transform="translate(-14565 354)">
    <g id="Rectangle_411" data-name="Rectangle 411" transform="translate(14565 -354)" fill="none" stroke="#707070" stroke-width="2">
      <rect width="44" height="44" rx="5" stroke="none"/>
      <rect x="1" y="1" width="42" height="42" rx="4" fill="none"/>
    </g>
    <g id="Polygon_6" data-name="Polygon 6" transform="translate(14596 -342) rotate(90)" fill="none">
      <path d="M9.681,1.17a1,1,0,0,1,1.638,0L19.9,13.427A1,1,0,0,1,19.079,15H1.921A1,1,0,0,1,1.1,13.427Z" stroke="none"/>
      <path d="M 10.49999523162842 3.487582206726074 L 3.841304779052734 12.99999713897705 L 17.1586971282959 12.99999713897705 L 10.49999523162842 3.487582206726074 M 10.5 0.7437944412231445 C 10.81009006500244 0.7437944412231445 11.12018013000488 0.8859720230102539 11.31923007965088 1.170327186584473 L 19.89858055114746 13.42653656005859 C 20.36252021789551 14.08931732177734 19.88837051391602 14.99999713897705 19.0793399810791 14.99999713897705 L 1.920660018920898 14.99999713897705 C 1.111629486083984 14.99999713897705 0.6374797821044922 14.08931732177734 1.101419448852539 13.42653656005859 L 9.680769920349121 1.170327186584473 C 9.879819869995117 0.8859720230102539 10.18990993499756 0.7437944412231445 10.5 0.7437944412231445 Z" stroke="none" fill="#707070"/>
    </g>
  </g>
</svg>
